<?xml version="1.0" standalone="no"?>
<!DOCTYPE svg PUBLIC "-//W3C//DTD SVG 20010904//EN"
 "http://www.w3.org/TR/2001/REC-SVG-20010904/DTD/svg10.dtd">
<svg version="1.0" xmlns="http://www.w3.org/2000/svg"
 width="1024.000000pt" height="1024.000000pt" viewBox="0 0 1024.000000 1024.000000"
 preserveAspectRatio="xMidYMid meet">
<metadata>
Created by potrace 1.14, written by Peter Selinger 2001-2017
</metadata>
<g transform="translate(0.000000,1024.000000) scale(0.100000,-0.100000)"
fill="#000000" stroke="none">
<path d="M200 10232 c0 -4 8 -14 18 -22 9 -8 42 -36 72 -61 30 -25 102 -68
160 -96 58 -27 111 -57 119 -66 7 -9 20 -17 27 -17 8 0 14 -4 14 -8 0 -5 46
-30 103 -56 56 -26 109 -51 118 -56 24 -12 258 -7 267 6 4 6 30 19 57 29 28
10 58 26 67 37 11 12 19 15 23 8 5 -8 11 -8 20 0 7 6 20 8 29 4 11 -4 16 -1
16 10 0 9 6 16 13 16 7 0 19 9 27 20 10 14 16 16 22 7 6 -9 8 -9 8 1 0 7 13
12 30 12 19 0 30 5 30 14 0 8 15 17 37 21 20 4 45 15 54 26 12 14 31 20 63 21
32 0 46 5 46 14 0 8 9 14 19 14 22 0 81 31 81 43 0 4 9 7 20 7 11 0 20 5 20
10 0 6 9 19 20 30 11 11 20 25 20 30 0 7 -277 10 -810 10 -445 0 -810 -3 -810
-8z"/>
<path d="M10005 10200 c-4 -22 -11 -40 -17 -40 -6 0 -5 -6 2 -15 7 -8 9 -15 4
-16 -37 -3 152 -46 201 -45 l40 1 3 78 3 77 -115 0 -114 0 -7 -40z"/>
<path d="M10220 9923 c0 -21 5 -45 10 -53 7 -11 10 0 10 38 0 28 -4 52 -10 52
-5 0 -10 -17 -10 -37z"/>
<path d="M3127 9789 c-71 -20 -130 -47 -182 -83 -54 -37 -126 -110 -145 -147
-31 -59 -52 -159 -48 -222 l4 -59 -17 34 c-10 18 -19 51 -20 73 l-1 40 -10
-50 c-13 -67 3 -163 42 -248 16 -37 30 -74 30 -83 0 -10 24 -39 53 -66 28 -27
44 -46 34 -42 -10 4 -36 -2 -60 -14 -59 -29 -116 -50 -154 -57 -18 -4 -33 -10
-33 -15 0 -8 -47 -18 -119 -26 -86 -9 -118 -17 -139 -32 -22 -17 -21 -18 85
-87 118 -77 172 -122 248 -205 41 -46 37 -43 -25 16 -223 213 -552 340 -910
349 -74 2 -120 1 -102 -1 17 -3 32 -9 32 -13 0 -4 13 -6 30 -3 16 2 42 1 57
-3 l28 -8 -25 -7 c-16 -5 -19 -8 -7 -9 23 -1 22 -21 -1 -21 -19 0 -52 -29 -52
-45 0 -4 28 -6 63 -3 34 3 73 1 87 -3 14 -4 -42 -7 -125 -8 -223 -2 -329 -24
-495 -104 -47 -23 -89 -43 -95 -46 -5 -2 -4 3 3 12 8 9 29 22 47 28 19 7 36
21 38 31 4 13 15 18 44 19 21 1 29 3 18 6 -11 3 -24 10 -30 15 -7 8 -6 8 4 3
8 -4 17 -2 22 6 7 11 12 12 29 1 11 -7 20 -8 20 -3 0 6 -8 15 -17 20 -16 9
-16 10 5 11 13 0 22 6 22 15 0 18 -52 33 -58 17 -2 -7 -10 -12 -18 -12 -9 0
-12 -4 -9 -10 9 -15 -4 -12 -20 4 -12 12 -6 16 38 30 29 8 68 18 87 21 19 4
39 10 44 16 6 5 24 9 40 8 30 -1 30 -1 6 -9 -25 -8 -25 -8 -2 -9 13 -1 30 6
38 14 9 8 25 15 37 15 12 0 29 5 37 10 38 24 -199 -23 -308 -61 -163 -58 -275
-125 -392 -236 -176 -166 -290 -377 -308 -573 -6 -70 -7 -72 -14 -35 -4 22 -5
-59 -3 -180 6 -297 29 -392 129 -530 117 -162 355 -392 516 -500 115 -76 200
-122 200 -108 0 3 7 0 16 -8 8 -7 39 -21 67 -31 29 -10 77 -27 108 -37 30 -11
100 -27 155 -36 54 -8 122 -20 151 -26 75 -15 227 -12 308 5 39 9 80 16 93 16
12 0 30 4 40 9 9 5 38 18 64 28 27 10 48 21 48 25 0 8 68 48 83 48 7 0 33 20
59 44 25 25 63 52 83 60 68 29 247 234 310 356 10 19 24 40 32 45 7 6 16 28
20 50 3 22 10 42 14 46 26 17 25 298 -1 307 -6 2 -10 8 -10 12 0 5 -22 57 -50
115 -27 58 -50 110 -50 116 0 5 -4 9 -10 9 -6 0 -10 39 -10 98 -1 53 -5 129
-10 167 -24 166 -24 167 5 200 65 73 101 178 111 325 4 52 13 105 21 116 13
20 20 21 96 16 180 -12 320 -8 352 10 l30 17 -30 2 c-16 1 -46 3 -65 4 -46 3
-137 49 -145 74 -3 11 -16 23 -28 28 -15 5 12 10 78 14 77 5 118 14 180 37 44
17 72 25 62 18 -15 -12 -16 -14 -2 -20 8 -3 15 -1 15 5 0 6 21 9 48 9 74 -3
117 13 158 59 21 22 43 41 50 41 6 0 20 17 30 38 22 45 25 168 6 257 -8 33
-20 89 -28 125 -37 170 -148 305 -256 315 -38 3 -86 18 -198 61 -52 20 -192
16 -273 -7z m181 -136 c-15 -2 -42 -2 -60 0 -18 2 -6 4 27 4 33 0 48 -2 33 -4z
m-157 -19 c-24 -7 -46 -15 -48 -17 -2 -2 31 -3 72 -1 52 1 75 -1 75 -9 0 -7 5
-6 10 3 5 8 10 10 10 3 0 -6 9 -9 23 -6 16 4 19 2 8 -5 -10 -8 1 -12 44 -17
36 -5 78 -19 106 -36 77 -45 188 -120 195 -131 4 -6 9 -6 14 3 11 16 32 -61
25 -87 -3 -11 3 -3 12 16 12 24 17 57 17 104 l-1 70 15 -40 c39 -108 -2 -247
-103 -349 -75 -77 -152 -114 -255 -125 -41 -4 -79 -9 -85 -11 -18 -6 -129 11
-142 23 -7 6 -13 20 -13 32 -1 25 -15 45 -50 69 -28 19 -125 24 -135 6 -13
-20 -52 -28 -89 -17 -47 15 -46 34 2 82 38 38 38 39 28 86 -9 44 -7 53 22 112
18 35 32 69 32 76 0 6 4 12 10 12 5 0 7 6 4 14 -3 9 3 17 16 21 12 4 19 9 16
13 -4 3 4 16 16 29 17 19 19 23 5 17 -9 -3 -17 -10 -17 -14 0 -4 -12 -16 -27
-25 l-28 -18 30 33 c17 17 44 39 60 48 37 19 135 51 155 50 8 0 -5 -6 -29 -14z
m226 10 c-3 -3 -12 -4 -19 -1 -8 3 -5 6 6 6 11 1 17 -2 13 -5z m333 -648 c0
-2 -7 -7 -16 -10 -8 -3 -12 -2 -9 4 6 10 25 14 25 6z m-70 -51 c0 -2 -10 -9
-22 -15 -22 -11 -22 -10 -4 4 21 17 26 19 26 11z m-1595 -192 c8 -7 18 -13 23
-13 6 0 12 -6 15 -14 3 -7 28 -22 56 -32 28 -10 49 -19 47 -21 -3 -3 -168 35
-241 56 -29 9 -28 9 13 10 23 1 42 5 42 9 0 5 -13 7 -30 4 -32 -5 -37 1 -18
22 9 9 20 11 36 5 18 -7 24 -5 30 9 6 15 7 15 10 -2 2 -11 10 -26 17 -33z
m-843 -10 c-6 -2 -9 -10 -6 -15 4 -7 2 -8 -5 -4 -13 9 -5 26 12 25 9 0 8 -2
-1 -6z m1038 -93 c8 -5 11 -10 5 -10 -5 0 -17 5 -25 10 -8 5 -10 10 -5 10 6 0
17 -5 25 -10z m110 -66 c0 -2 -9 0 -20 6 -11 6 -20 13 -20 16 0 2 9 0 20 -6
11 -6 20 -13 20 -16z m-385 -35 c141 -35 295 -103 295 -130 0 -5 16 -16 35
-25 19 -9 35 -22 35 -29 0 -7 16 -25 36 -40 43 -33 64 -52 131 -115 29 -28 57
-50 62 -50 30 0 86 -115 100 -205 l8 -50 7 40 c4 22 11 58 15 80 9 40 9 39 10
-18 1 -75 -24 -195 -58 -278 -77 -185 -282 -376 -493 -460 -211 -85 -484 -98
-698 -35 -186 56 -399 185 -496 302 -100 120 -135 209 -133 341 2 99 16 183
18 105 1 -46 21 -51 21 -5 0 15 6 34 14 42 8 9 33 52 57 96 84 161 152 247
238 302 216 139 549 194 796 132z m456 -16 c13 -16 12 -17 -3 -4 -17 13 -22
21 -14 21 2 0 10 -8 17 -17z m-1216 -73 c-7 -12 -65 -43 -65 -35 0 5 61 45 68
45 2 0 0 -5 -3 -10z m-155 -104 c0 -2 -8 -10 -17 -17 -16 -13 -17 -12 -4 4 13
16 21 21 21 13z m1637 -278 c-3 -8 -6 -5 -6 6 -1 11 2 17 5 13 3 -3 4 -12 1
-19z"/>
<path d="M6155 9349 c-86 -21 -204 -63 -293 -105 -91 -44 -98 -50 -405 -347
-399 -386 -3214 -3196 -4205 -4197 -466 -471 -772 -788 -797 -825 -106 -160
-121 -335 -43 -495 36 -73 44 -93 28 -67 -6 9 -15 15 -19 13 -25 -16 -80 154
-82 254 0 40 -3 50 -9 35 -14 -32 -11 -332 4 -415 17 -93 42 -152 108 -255 29
-44 72 -111 96 -150 25 -38 65 -93 89 -122 23 -30 43 -57 43 -61 0 -10 176
-190 238 -242 29 -25 62 -48 74 -53 12 -4 38 -22 59 -40 57 -50 159 -120 200
-138 20 -10 40 -22 44 -28 4 -7 30 -23 58 -37 29 -13 68 -34 87 -45 94 -58
251 -149 254 -149 10 0 423 -230 446 -248 14 -11 52 -33 86 -50 33 -17 66 -37
73 -46 8 -9 19 -16 25 -16 6 -1 49 -25 96 -55 47 -31 119 -72 160 -94 41 -21
91 -46 110 -56 19 -10 51 -30 70 -45 19 -15 83 -51 143 -80 59 -29 110 -56
112 -61 3 -4 30 -19 60 -33 31 -14 58 -32 61 -41 3 -8 9 -15 13 -15 8 0 102
-51 241 -130 41 -23 104 -58 140 -77 36 -20 77 -44 92 -54 14 -11 32 -19 40
-19 8 0 18 -4 23 -9 10 -9 129 -73 255 -138 36 -18 72 -37 80 -41 31 -18 87
-40 130 -51 25 -7 59 -17 75 -23 17 -6 43 -13 60 -16 16 -3 41 -13 55 -23 63
-44 347 -71 450 -43 69 20 104 27 113 26 4 -1 10 4 13 13 3 8 21 17 40 21 39
7 141 111 189 192 17 29 33 52 36 52 16 0 153 149 242 263 22 29 142 151 193
198 16 14 65 67 108 116 43 50 97 106 120 124 63 53 216 213 216 227 0 3 10
15 23 27 12 12 33 36 46 54 13 17 28 31 35 31 6 0 18 15 27 33 8 17 38 47 65
65 27 17 49 37 49 42 0 6 26 35 58 65 31 30 57 51 57 47 0 -4 11 10 25 31 14
20 30 37 35 37 6 0 10 7 10 16 0 18 112 134 129 134 6 0 11 4 11 9 0 6 23 37
50 70 28 33 50 64 50 68 0 9 62 63 73 63 4 0 7 9 7 20 0 13 7 20 20 20 11 0
20 7 20 15 0 9 9 19 19 23 22 8 151 130 151 142 0 5 9 12 20 15 11 3 20 15 20
26 0 12 7 19 20 19 11 0 20 5 20 11 0 10 21 35 78 96 12 13 22 27 22 32 0 4
25 31 55 59 30 29 55 56 55 61 0 5 17 23 38 41 20 18 69 63 109 101 40 38 76
69 81 69 4 0 33 33 62 73 30 39 59 74 64 76 20 8 126 114 163 163 21 26 43 48
49 48 7 0 16 9 19 20 3 11 14 20 24 20 22 0 71 50 71 73 0 9 7 17 15 17 8 0
15 5 15 10 0 6 5 10 11 10 6 0 40 33 77 72 37 40 87 94 112 121 25 26 63 68
85 93 66 76 255 264 265 264 6 0 10 6 10 14 0 8 8 17 18 20 11 4 54 40 97 81
43 41 82 75 86 75 5 0 9 4 9 9 0 15 140 151 155 151 8 0 18 12 21 27 8 32 27
53 46 53 7 0 19 13 26 29 7 15 25 40 40 54 84 81 102 100 102 108 0 5 7 9 15
9 8 0 15 5 15 10 0 6 7 10 16 10 8 0 20 13 25 29 5 15 21 34 34 41 14 7 25 21
25 30 0 16 42 60 58 60 7 0 29 34 67 102 23 41 111 138 125 138 6 0 10 9 10
20 0 13 7 20 19 20 11 0 23 9 26 20 3 11 12 20 20 20 7 0 25 14 38 30 14 17
28 30 32 30 3 0 18 11 33 25 15 14 41 32 59 40 17 9 35 24 38 35 3 10 15 22
26 25 20 7 169 148 169 160 0 12 28 35 43 35 8 0 22 18 32 40 10 22 24 40 32
40 7 0 16 7 19 15 4 8 17 15 30 15 19 0 24 6 26 28 4 55 5 67 13 85 11 27 -2
172 -19 205 -8 15 -19 53 -25 85 -6 31 -15 66 -21 76 -5 11 -10 29 -10 41 0
12 -33 88 -74 168 l-74 147 -5 170 c-6 180 -15 230 -61 327 -64 135 -185 255
-351 351 -49 28 -124 74 -166 102 -106 70 -189 121 -289 178 -47 27 -92 55
-100 62 -8 7 -37 25 -65 40 -96 54 -290 168 -330 195 -22 15 -60 37 -84 49
-24 13 -73 42 -110 65 -36 23 -91 56 -121 73 -53 29 -91 52 -270 162 -47 29
-132 79 -190 111 -108 59 -216 124 -260 158 -14 10 -83 53 -155 95 -71 42
-176 105 -233 141 -92 60 -261 156 -477 272 -128 69 -235 96 -395 100 -74 2
-153 -1 -175 -7z m138 -106 c-18 -2 -48 -2 -65 0 -18 2 -4 4 32 4 36 0 50 -2
33 -4z m146 -54 c65 -15 169 -62 301 -137 136 -77 189 -113 190 -129 0 -7 9
-9 22 -5 22 5 22 5 -4 -26 -14 -17 -38 -56 -52 -86 -14 -30 -31 -58 -36 -61
-13 -8 5 40 32 83 11 18 18 35 15 38 -6 7 -40 -52 -61 -108 -17 -44 -17 -47 1
-89 25 -57 66 -92 192 -165 485 -282 1193 -716 1412 -866 53 -36 127 -81 165
-99 62 -30 78 -34 150 -34 77 1 86 3 188 53 59 29 112 50 116 47 5 -3 10 0 12
7 11 31 415 -228 498 -318 69 -76 101 -144 89 -187 -5 -17 -13 -35 -19 -41 -5
-5 -10 -20 -10 -33 0 -16 -6 -23 -20 -23 -11 0 -20 5 -20 10 0 6 -18 10 -40
10 -29 0 -40 -4 -40 -15 0 -8 -9 -15 -20 -15 -17 0 -20 -7 -20 -40 0 -33 -3
-40 -20 -40 -13 0 -20 -7 -20 -20 0 -13 7 -20 20 -20 18 0 20 -7 20 -60 l0
-60 -40 0 c-33 0 -40 3 -40 20 0 11 -4 20 -10 20 -5 0 -10 -18 -10 -40 0 -22
-4 -40 -10 -40 -5 0 -10 18 -10 40 0 22 -4 40 -8 40 -5 0 -21 10 -35 23 -25
21 -27 27 -22 80 4 36 2 57 -5 57 -5 0 -10 -9 -10 -20 0 -11 -4 -20 -10 -20
-5 0 -10 18 -10 40 0 22 -4 40 -10 40 -5 0 -10 9 -10 20 0 14 -7 20 -22 21
-13 0 -17 3 -10 6 6 2 12 11 12 19 0 17 17 19 23 2 4 -10 8 -9 16 2 7 10 29
14 74 14 44 1 63 4 60 12 -2 6 7 19 21 28 15 9 26 21 26 28 0 6 -12 -1 -27
-16 -33 -34 -68 -42 -107 -27 -17 7 -36 13 -43 15 -7 1 -16 6 -20 11 -4 4 -2
5 5 1 15 -9 15 -6 -2 34 l-13 32 -17 -23 c-10 -15 -16 -18 -16 -9 -1 16 -48
55 -57 47 -8 -9 7 -28 18 -22 13 9 11 -9 -3 -23 -9 -9 -6 -11 10 -7 18 3 21
-1 20 -21 -2 -22 -6 -24 -55 -24 -39 0 -53 4 -53 14 0 9 -15 17 -40 21 -26 4
-40 12 -40 22 0 12 -7 14 -30 9 -16 -3 -43 -9 -60 -12 -24 -5 -30 -3 -30 10 0
10 -8 16 -21 16 -14 0 -19 5 -16 14 4 9 0 12 -13 9 -10 -3 -21 0 -24 6 -5 8
-13 8 -27 1 -22 -12 -39 -6 -39 16 0 8 -4 14 -10 14 -5 0 -10 9 -10 20 0 11
-4 20 -9 20 -5 0 -23 11 -39 25 -16 13 -31 23 -33 21 -2 -2 -30 -6 -61 -10
-46 -5 -58 -3 -58 8 0 16 -59 30 -85 20 -13 -6 -16 -4 -10 5 12 21 -39 59 -72
54 -22 -4 -25 -2 -13 7 12 8 9 9 -12 4 -24 -5 -28 -3 -28 15 0 14 -6 21 -20
21 -11 0 -23 7 -26 15 -4 8 -11 15 -18 15 -6 0 -19 24 -27 53 -11 37 -21 53
-35 54 -10 1 -30 5 -44 8 -19 5 -33 0 -53 -19 -15 -14 -23 -28 -17 -31 5 -3
17 6 26 20 21 32 47 32 64 -1 11 -20 11 -29 2 -44 -10 -16 -9 -21 8 -30 35
-19 43 -47 20 -70 -20 -20 -21 -20 -45 -3 -13 10 -25 24 -25 31 0 6 -4 12 -9
12 -13 0 -111 -102 -111 -117 0 -6 14 -16 30 -22 33 -11 37 -27 16 -56 -13
-18 -15 -18 -39 -2 -41 27 -80 83 -72 106 7 22 95 91 116 91 8 0 4 9 -9 23
-12 13 -22 31 -22 40 0 9 -10 26 -22 39 -13 13 -17 16 -9 6 11 -14 12 -23 3
-43 -6 -14 -15 -25 -20 -25 -4 0 -26 18 -47 40 -27 28 -48 40 -67 40 -15 0
-28 -3 -28 -6 0 -4 18 -24 40 -46 22 -22 44 -54 48 -72 8 -28 6 -33 -21 -50
-43 -28 -109 -27 -141 3 -40 38 -66 87 -53 100 8 8 8 11 -1 11 -7 0 -12 -4
-12 -10 0 -5 -7 -10 -15 -10 -24 0 -18 13 22 48 l38 32 3 -42 c4 -46 21 -72
62 -93 17 -9 31 -10 43 -4 15 9 13 15 -17 59 -68 99 -56 135 45 135 50 0 57 2
42 13 -33 24 -95 14 -184 -29 -46 -22 -102 -55 -124 -73 -64 -53 -82 -59 -145
-53 -49 6 -60 3 -75 -13 -31 -34 -56 -28 -165 39 -140 85 -312 187 -400 236
-146 81 -142 78 -136 105 9 49 12 60 20 67 4 4 -10 12 -31 18 -54 15 -53 37 5
92 27 27 73 80 102 118 30 39 62 77 72 85 16 14 16 16 -2 39 -13 15 -20 18
-20 9 0 -8 -14 -27 -30 -43 l-30 -29 -46 22 -45 22 -60 -57 c-56 -53 -62 -56
-88 -46 -25 9 -28 8 -26 -6 2 -13 13 -16 54 -14 l51 2 1 -32 c0 -18 1 -48 3
-67 1 -33 -16 -82 -38 -106 -17 -18 -68 0 -147 53 -41 27 -155 98 -254 158
-99 60 -225 138 -280 175 -55 37 -150 97 -211 134 -128 77 -146 92 -164 136
-12 30 -12 37 6 66 30 53 331 350 398 395 82 54 169 96 236 113 64 17 226 20
289 5z m-509 -49 c0 -5 -2 -10 -4 -10 -3 0 -8 5 -11 10 -3 6 -1 10 4 10 6 0
11 -4 11 -10z m-65 -42 c-16 -12 -60 -51 -96 -85 -36 -35 -69 -60 -73 -56 -4
5 -6 3 -4 -4 2 -7 -42 -58 -96 -113 -74 -76 -101 -98 -108 -88 -7 10 -9 9 -5
-4 7 -19 -123 -160 -143 -156 -7 2 -14 -5 -15 -15 -4 -23 -33 -55 -60 -68 -17
-9 -18 -8 -5 3 23 20 47 53 33 44 -8 -4 -13 -2 -13 8 0 8 5 18 10 21 6 3 10
17 10 31 0 17 5 24 20 24 11 0 19 5 18 12 -2 6 7 17 20 23 13 7 23 16 22 21
-1 5 6 14 16 19 27 15 44 32 44 45 0 17 26 40 44 40 9 0 16 8 16 20 0 11 5 20
10 20 6 0 10 7 10 16 0 8 5 12 10 9 6 -3 10 -1 10 4 0 6 9 11 20 11 13 0 20 7
20 20 0 11 5 20 10 20 6 0 10 -4 10 -10 0 -5 5 -10 10 -10 6 0 10 7 10 16 0
22 32 53 38 36 8 -26 22 -10 22 28 0 22 5 40 10 40 6 0 10 9 10 20 0 11 5 20
10 20 6 0 10 -4 10 -10 0 -5 5 -10 10 -10 6 0 10 7 10 16 0 8 6 22 14 30 8 8
22 14 30 14 9 0 16 5 16 10 0 6 21 10 48 10 l47 -1 -30 -21z m-745 -709 c0 -8
5 -8 15 1 10 8 15 9 15 1 0 -6 -16 -17 -35 -25 -19 -8 -35 -18 -35 -21 0 -3 6
-3 13 1 6 4 -19 -25 -57 -64 -39 -39 -72 -69 -75 -66 -3 3 1 9 8 13 7 5 11 13
8 19 -4 5 3 18 15 28 20 18 21 18 15 1 -4 -11 -3 -16 4 -12 6 4 9 23 7 44 -2
29 1 38 20 46 12 5 22 13 22 17 0 5 9 8 20 8 11 0 20 5 20 10 0 6 5 10 10 10
6 0 10 -5 10 -11z m528 -166 c30 -22 48 -77 38 -116 -9 -36 -61 -94 -91 -101
-16 -4 -47 2 -85 17 l-59 24 -48 -49 c-39 -40 -45 -50 -33 -58 8 -5 18 -10 23
-10 15 0 365 -202 428 -247 26 -18 67 -42 91 -53 25 -11 73 -40 107 -65 34
-25 65 -45 70 -45 4 0 48 -25 97 -56 49 -31 125 -76 169 -101 90 -51 174 -115
157 -121 -10 -3 -236 127 -297 172 -16 12 -64 43 -106 69 -73 45 -109 57 -109
38 0 -5 -13 -23 -29 -40 -49 -52 -105 -42 -140 27 -11 21 -9 27 21 55 l34 32
-42 35 c-23 19 -100 68 -171 109 -256 148 -298 174 -311 189 -11 14 -51 -23
-310 -285 -400 -405 -1184 -1175 -1190 -1169 -13 14 59 94 241 267 111 106
455 446 764 757 539 541 562 565 548 585 -25 35 -19 89 13 120 39 37 69 47
135 44 38 -2 66 -10 85 -24z m-802 -130 c-36 -37 -68 -64 -72 -61 -3 4 3 14
15 24 11 10 18 21 16 24 -3 4 4 15 15 25 11 10 20 14 20 10 0 -4 11 4 25 19
13 14 29 26 36 26 6 0 -19 -30 -55 -67z m-132 -134 c-32 -33 -63 -59 -68 -59
-5 0 16 25 47 55 31 31 57 60 57 66 0 6 5 7 11 3 7 -4 -12 -29 -47 -65z m-170
-173 c-55 -60 -59 -63 -68 -40 -5 12 -2 15 10 10 11 -4 15 -2 11 8 -3 8 4 22
15 33 20 17 21 17 15 0 -4 -11 -3 -16 3 -12 6 3 10 13 10 21 0 12 27 30 49 33
2 1 -18 -23 -45 -53z m-74 -81 c-7 -8 -17 -12 -22 -9 -6 4 -5 10 3 15 22 14
33 10 19 -6z m-80 -69 c0 -2 -7 -9 -15 -16 -13 -11 -14 -10 -9 4 5 14 24 23
24 12z m793 -69 c90 -62 262 -167 274 -167 3 0 23 20 45 45 57 64 70 70 115
46 59 -30 267 -175 271 -188 1 -6 -6 -14 -17 -18 -25 -8 -371 -345 -371 -362
0 -6 -19 -26 -41 -45 -52 -42 -84 -73 -187 -184 -46 -49 -101 -107 -123 -130
-21 -23 -39 -43 -39 -46 0 -3 -28 -35 -61 -69 -34 -35 -127 -135 -206 -222
-128 -139 -149 -158 -170 -152 -29 7 -243 121 -260 138 -14 14 3 35 266 324
79 87 201 221 270 298 69 76 176 193 236 260 208 227 260 288 249 292 -6 2
-69 38 -140 79 -141 83 -234 149 -234 165 0 17 23 5 123 -64z m-833 29 c0 -2
-8 -10 -17 -17 -16 -13 -17 -12 -4 4 13 16 21 21 21 13z m-40 -40 c0 -2 -8
-10 -17 -17 -16 -13 -17 -12 -4 4 13 16 21 21 21 13z m-40 -41 c0 -2 -6 -8
-13 -14 -10 -8 -14 -7 -14 2 0 8 6 14 14 14 7 0 13 -1 13 -2z m3378 -13 c-5
-14 65 -82 83 -82 9 0 19 -7 23 -15 3 -8 12 -15 19 -15 8 0 23 -11 33 -25 12
-16 29 -25 46 -25 16 0 28 -4 28 -10 0 -5 12 -16 28 -24 15 -8 23 -15 18 -16
-15 0 36 -50 51 -50 10 0 12 -7 8 -19 -5 -16 -1 -19 27 -18 29 2 33 -1 30 -20
-2 -13 2 -23 7 -23 6 0 11 5 11 10 0 11 40 -8 52 -25 7 -9 12 7 9 27 0 4 6 5
15 1 9 -3 11 -9 6 -12 -14 -9 -11 -39 5 -45 7 -3 13 -12 13 -21 0 -8 9 -15 20
-15 13 0 20 -7 20 -20 0 -13 7 -20 20 -20 17 0 20 -7 20 -38 0 -59 34 -86 106
-83 l57 2 -6 -33 c-3 -18 -3 -27 0 -20 2 6 14 12 26 12 18 0 19 2 7 10 -12 8
-11 10 8 10 12 0 22 5 22 10 0 6 10 10 23 10 13 0 27 4 33 10 6 6 20 4 38 -5
26 -14 30 -14 42 2 7 10 14 14 14 8 0 -5 8 2 18 16 9 14 36 43 60 64 50 44 53
73 9 88 -47 15 -73 1 -129 -73 -55 -72 -68 -80 -88 -55 -18 21 -4 49 56 114
30 32 54 64 54 70 0 15 -71 43 -89 35 -9 -4 -19 -8 -22 -8 -4 -1 -31 -26 -61
-57 -49 -52 -57 -56 -93 -54 -28 2 -41 8 -43 19 -2 9 3 16 12 16 8 0 53 38 99
85 80 81 127 107 127 71 0 -9 16 -17 42 -21 44 -8 98 -51 98 -79 0 -12 11 -16
50 -16 66 0 95 -26 86 -78 -4 -27 -21 -50 -71 -98 -36 -34 -65 -69 -65 -78 0
-9 -7 -19 -16 -23 -11 -4 -12 -8 -4 -13 7 -4 9 -13 6 -19 -4 -6 -12 -9 -17 -6
-11 7 -11 3 -3 -19 3 -9 14 -16 24 -16 20 0 37 -33 21 -38 -6 -2 -11 -10 -11
-18 0 -8 -9 -14 -20 -14 -32 0 -23 -17 15 -30 19 -6 33 -16 30 -21 -4 -5 1 -9
9 -9 25 0 116 -53 116 -67 0 -7 6 -13 14 -13 8 0 27 -11 43 -24 15 -13 36 -22
46 -20 9 1 15 -1 13 -5 -3 -4 -1 -13 3 -19 8 -13 41 -6 41 9 0 5 7 9 15 9 8 0
15 5 15 10 0 6 9 10 20 10 16 0 20 -7 20 -30 0 -23 4 -30 20 -30 11 0 20 -4
20 -10 0 -5 9 -10 20 -10 15 0 20 7 20 26 0 23 20 54 34 54 3 0 6 -25 6 -55 0
-57 16 -76 23 -27 l4 27 8 -32 c4 -18 12 -33 17 -33 5 0 6 -4 3 -10 -3 -5 -20
-7 -38 -4 -25 3 -28 2 -12 -5 42 -20 -43 -11 -97 10 -57 22 -171 88 -176 101
-2 4 -10 8 -18 8 -8 0 -14 5 -14 10 0 6 -4 10 -9 10 -17 0 -120 73 -115 81 3
5 -2 9 -10 9 -22 0 -152 66 -219 112 -32 22 -73 47 -90 57 -43 24 -118 70
-262 159 -66 40 -129 79 -140 85 -11 7 -31 19 -45 28 -14 9 -61 36 -105 59
-44 24 -103 58 -131 75 -28 18 -108 63 -176 99 -113 60 -125 69 -122 91 1 14
-3 25 -9 25 -8 0 -9 3 -1 8 6 4 13 15 17 25 4 10 17 17 34 17 28 1 106 10 110
14 7 6 63 5 61 -2z m356 -13 c-3 -5 -10 -7 -15 -3 -5 3 -7 10 -3 15 3 5 10 7
15 3 5 -3 7 -10 3 -15z m-3829 -58 c3 -5 2 -12 -3 -15 -5 -3 -9 1 -9 9 0 17 3
19 12 6z m4139 -15 c71 -30 101 -123 57 -177 l-20 -24 -89 48 c-49 26 -92 47
-96 47 -3 0 -6 -11 -6 -25 0 -31 33 -62 82 -77 41 -12 45 -17 26 -36 -18 -18
-64 -15 -108 8 -50 25 -60 45 -60 113 0 54 1 56 48 90 26 19 54 37 62 40 27
10 70 7 104 -7z m-1441 -87 c67 -34 130 -68 140 -77 24 -22 21 -49 -7 -56 -31
-8 -299 -277 -384 -386 -109 -140 -197 -237 -348 -387 -79 -78 -155 -160 -169
-183 -14 -22 -30 -40 -35 -40 -6 0 -10 -7 -10 -16 0 -8 -4 -13 -9 -9 -5 3 -13
-4 -16 -16 -4 -11 -25 -42 -48 -68 -23 -27 -86 -100 -139 -162 -89 -105 -338
-359 -352 -359 -3 0 -36 20 -74 44 -71 46 -155 86 -178 86 -25 0 -15 38 25 87
21 26 69 82 107 124 38 41 117 131 175 200 58 68 139 160 179 204 40 44 100
114 133 155 33 41 79 95 103 120 23 25 77 88 119 140 l76 94 -28 11 c-64 23
-196 100 -235 137 -42 39 -42 39 -8 18 19 -12 80 -44 135 -71 55 -27 111 -56
125 -65 26 -16 26 -16 102 62 41 44 109 117 149 164 41 46 124 135 184 197 88
89 117 113 138 113 15 0 82 -27 150 -61z m-2848 -69 c-3 -5 -12 -10 -18 -10
-7 0 -6 4 3 10 19 12 23 12 15 0z m860 -135 c42 -41 25 -78 -42 -91 -31 -6
-39 -3 -55 16 -24 30 -23 66 4 84 32 23 65 20 93 -9z m1080 -41 c17 -12 85
-50 153 -84 67 -34 122 -66 122 -71 0 -20 -243 112 -305 166 -33 29 -16 23 30
-11z m-1362 -11 c50 -25 230 -148 249 -170 17 -19 14 -23 -89 -124 -59 -57
-106 -109 -105 -116 2 -6 -13 -19 -31 -28 -19 -9 -40 -28 -48 -42 -8 -14 -29
-32 -46 -40 -24 -9 -33 -20 -33 -36 0 -26 -49 -86 -66 -80 -6 2 -10 -7 -10
-19 1 -17 -7 -25 -34 -34 -30 -10 -35 -16 -35 -42 -1 -16 -6 -37 -13 -45 -16
-18 -50 -28 -58 -16 -3 5 -10 9 -15 9 -6 0 -3 -7 5 -16 9 -8 16 -20 16 -25 0
-21 -41 -5 -120 47 -47 31 -102 65 -122 75 -48 24 -72 61 -64 94 4 14 64 85
134 158 70 73 197 208 282 300 85 91 159 166 163 167 4 0 22 -7 40 -17z m4334
-44 c42 -16 83 -59 83 -89 0 -18 -21 -47 -76 -103 -77 -78 -88 -84 -113 -68
-12 8 -12 12 -2 25 12 14 9 16 -20 16 -52 0 -99 33 -99 70 0 17 9 39 20 50 27
27 111 27 162 1 26 -13 40 -15 47 -8 30 30 -3 62 -72 69 -27 3 -27 4 -12 26
18 24 39 27 82 11z m-1822 -97 c216 -122 706 -434 740 -472 20 -22 89 -69 270
-185 116 -75 261 -151 302 -160 17 -3 37 -13 44 -21 9 -11 7 -14 -13 -14 -26
0 -64 -36 -200 -195 -47 -55 -123 -136 -167 -179 -45 -43 -110 -113 -145 -155
-35 -42 -124 -135 -197 -206 -74 -72 -231 -230 -349 -351 -119 -121 -222 -224
-230 -229 -28 -17 176 199 452 479 152 155 302 313 333 351 31 39 61 72 66 73
17 7 9 20 -23 41 -39 25 -22 28 20 4 29 -17 30 -17 63 12 19 17 75 75 124 129
50 55 118 129 153 166 l63 67 -75 36 c-41 19 -139 76 -218 125 -79 49 -161 99
-183 110 -22 11 -58 39 -80 62 -49 50 -251 181 -545 353 -112 65 -270 170
-270 180 0 12 13 8 65 -21z m2063 -46 c45 -23 64 -51 60 -88 -2 -27 -7 -33
-27 -33 -20 0 -26 7 -35 40 -11 38 -14 40 -54 43 -53 4 -55 -12 -7 -58 28 -27
35 -42 35 -71 0 -35 -3 -39 -35 -48 -50 -14 -103 2 -144 43 -29 30 -34 39 -25
54 18 27 37 24 59 -11 21 -33 59 -47 78 -28 7 7 -1 23 -26 51 -43 47 -45 59
-14 87 39 36 89 43 135 19z m533 -53 c-24 -48 -149 -191 -331 -378 -75 -77
-307 -320 -516 -540 -208 -220 -635 -659 -949 -975 -313 -316 -658 -665 -766
-775 -1096 -1119 -1722 -1762 -1845 -1895 -167 -180 -633 -666 -650 -679 -10
-8 15 21 57 65 351 369 492 518 544 574 106 116 513 538 790 820 352 359 995
1017 1215 1245 96 99 407 414 690 700 518 521 636 642 959 985 96 102 256 268
356 370 259 266 406 429 435 482 13 26 26 45 28 43 2 -1 -6 -21 -17 -42z
m-3999 -147 c65 -42 124 -87 133 -99 14 -20 13 -22 -7 -30 -28 -10 -94 -70
-139 -127 -20 -25 -77 -90 -127 -145 -51 -55 -92 -104 -92 -110 0 -17 -86 -96
-95 -87 -4 4 -5 2 -1 -5 7 -13 -68 -112 -117 -153 -16 -14 -42 -43 -58 -65
-51 -73 -116 -136 -133 -129 -9 3 -14 10 -11 14 3 5 -15 18 -41 30 -25 12 -67
40 -94 61 -27 22 -54 39 -59 39 -5 0 -23 13 -40 29 -55 51 -57 48 324 450 55
58 130 137 165 176 113 121 242 237 259 232 9 -2 69 -39 133 -81z m2298 -168
c0 -33 -9 -35 -33 -8 -22 26 -22 48 1 52 21 5 32 -9 32 -44z m-1371 18 c9 -8
43 -28 76 -46 33 -18 92 -56 130 -85 70 -53 118 -75 161 -75 13 0 26 -5 30
-12 14 -23 -89 2 -150 36 -131 73 -301 196 -272 196 5 0 17 -6 25 -14z m-2731
-138 c103 -61 259 -155 347 -208 88 -54 203 -123 255 -154 52 -31 127 -76 165
-101 39 -25 99 -60 135 -79 36 -19 108 -62 160 -97 52 -34 147 -92 211 -129
119 -68 152 -88 459 -282 96 -61 200 -126 230 -144 84 -49 204 -124 289 -178
42 -27 159 -99 261 -161 324 -195 511 -317 507 -329 -8 -25 -42 -14 -154 54
-65 40 -131 82 -148 94 -29 21 -96 63 -413 257 -315 193 -388 238 -655 405
-149 94 -333 207 -407 251 -74 44 -241 145 -370 223 -129 79 -264 160 -300
180 -36 21 -114 68 -175 105 -60 38 -204 124 -320 192 -270 160 -275 163 -275
191 0 12 3 22 6 22 3 0 90 -50 192 -112z m3287 -24 c61 -31 124 -63 140 -73
137 -80 227 -136 232 -144 9 -14 -34 2 -86 33 -26 15 -92 51 -146 80 -55 29
-130 69 -166 88 -36 19 -85 53 -110 75 -40 36 -41 37 -9 18 19 -12 85 -47 145
-77z m659 -124 c15 -5 31 -21 38 -34 15 -34 -12 -76 -48 -76 -88 0 -141 82
-70 110 29 12 50 12 80 0z m-140 -178 c66 -38 136 -74 154 -81 40 -17 40 -23
1 -40 -40 -18 -501 -482 -716 -721 -76 -85 -142 -156 -215 -233 -38 -39 -68
-74 -68 -78 0 -4 -17 -28 -37 -53 -21 -24 -46 -56 -55 -70 l-18 -25 -132 79
c-73 44 -140 83 -148 88 -12 7 -10 13 9 38 22 28 452 501 581 639 36 39 99
108 140 155 125 141 330 355 348 362 28 11 30 10 156 -60z m-3993 48 c14 -8
19 -21 19 -50 0 -21 -5 -42 -10 -45 -6 -4 -22 -24 -36 -46 -35 -55 -61 -65
-110 -42 -43 20 -51 38 -29 67 15 19 15 19 39 -3 26 -24 56 -25 64 -2 3 9 0
11 -7 7 -17 -11 -61 21 -61 43 0 11 12 33 26 50 27 33 67 41 105 21z m2646
-66 c101 -69 193 -144 193 -157 -1 -31 -72 -111 -360 -412 -85 -89 -174 -185
-198 -214 -52 -61 -84 -67 -123 -24 -13 15 -16 21 -6 14 15 -12 17 -11 17 5 0
19 -16 32 -114 93 -65 40 -77 39 -29 -1 55 -48 65 -58 57 -58 -20 0 -87 57
-118 100 l-34 47 42 54 c109 138 560 599 586 599 10 0 49 -21 87 -46z m712
-52 c92 -38 141 -70 141 -90 0 -6 -45 -54 -100 -108 -56 -54 -103 -109 -106
-121 -4 -13 -13 -23 -20 -23 -33 0 -94 -42 -140 -96 -27 -32 -86 -94 -131
-139 -46 -45 -83 -87 -83 -94 0 -17 -109 -131 -123 -128 -6 1 -12 -4 -13 -10
-1 -7 -2 -17 -3 -22 0 -4 -31 -38 -67 -75 l-65 -66 -129 66 c-181 93 -172 83
-130 136 36 46 174 194 435 470 88 93 184 197 212 231 59 70 108 115 138 127
22 8 39 3 184 -58z m-3189 -12 c9 -16 8 -20 -4 -20 -9 0 -18 -11 -22 -25 -5
-21 -11 -24 -28 -19 -31 9 -31 9 1 48 32 42 38 43 53 16z m20 -85 c-7 -8 -25
-15 -40 -15 -19 0 -36 -9 -49 -26 -29 -37 -70 -30 -93 15 -21 42 -14 55 12 24
19 -24 54 -31 65 -13 4 6 -5 10 -19 10 -14 0 -26 5 -26 10 0 12 23 12 75 0 34
-8 43 -6 60 11 22 21 34 7 15 -16z m202 -2 c27 -24 22 -43 -26 -94 -52 -54
-115 -78 -153 -58 -24 13 -32 52 -13 64 6 4 22 -1 36 -10 14 -9 33 -15 42 -13
13 3 8 9 -16 21 l-32 18 26 35 c15 19 34 39 43 44 25 15 73 12 93 -7z m206
-139 c44 -31 22 -119 -38 -153 -44 -25 -71 -22 -107 12 -44 40 -24 66 33 42
20 -8 38 -14 39 -13 1 2 7 17 12 33 7 20 16 29 27 27 21 -4 21 17 -1 34 -25
19 -32 17 -26 -5 4 -17 -2 -19 -50 -23 -65 -4 -63 6 7 38 61 28 75 29 104 8z
m3627 -22 c-3 -3 -11 0 -18 7 -9 10 -8 11 6 5 10 -3 15 -9 12 -12z m-4359 -87
c89 -17 144 -33 144 -43 0 -4 -12 -15 -28 -26 -15 -10 -62 -60 -104 -110 -43
-50 -88 -102 -101 -116 -13 -14 -35 -43 -50 -64 -15 -22 -64 -81 -109 -131
l-83 -92 -110 -7 c-122 -8 -545 -53 -585 -63 -14 -3 -31 -11 -39 -17 -11 -9
-13 4 -9 80 3 79 9 100 42 169 31 66 54 96 134 176 83 81 112 103 192 142 94
46 228 90 325 106 85 14 297 12 381 -4z m381 -199 c104 -108 143 -205 143
-351 0 -85 -39 -206 -81 -249 -16 -17 -10 1 12 39 28 47 18 57 -11 11 -25 -42
-35 -46 -26 -11 5 18 2 25 -9 25 -8 0 -15 4 -15 9 0 5 -13 11 -30 15 -24 4
-30 11 -30 31 0 18 -5 25 -20 25 -13 0 -20 -7 -20 -20 0 -13 -7 -20 -20 -20
-13 0 -20 -7 -20 -20 0 -13 -7 -20 -20 -20 -11 0 -20 -4 -20 -10 0 -5 9 -10
20 -10 11 0 20 -4 20 -10 0 -5 -18 -10 -39 -10 -22 0 -41 -5 -43 -11 -3 -8
-15 -6 -38 6 -24 13 -35 14 -38 6 -3 -9 -7 -9 -18 0 -11 9 -18 9 -26 1 -8 -8
-18 -3 -38 18 -15 16 -30 27 -33 24 -2 -3 -29 20 -59 50 -35 35 -66 58 -86 62
-18 4 -30 10 -27 14 2 4 -8 5 -22 2 l-27 -5 31 39 c52 65 415 407 458 432 40
23 61 13 132 -62z m1230 -116 c38 -22 79 -50 91 -63 33 -35 38 -85 13 -124
-20 -31 -24 -33 -82 -33 l-61 0 4 -75 c2 -41 0 -75 -5 -75 -4 0 -22 7 -39 16
l-30 16 7 73 c6 72 6 74 -21 91 l-27 18 -41 -47 -41 -47 -33 21 -32 21 110
114 c60 63 110 118 110 124 0 14 1 14 77 -30z m212 -240 c68 -19 102 -78 86
-149 -5 -22 -12 -31 -26 -31 -27 0 -77 26 -117 61 -47 42 -69 38 -62 -11 3
-22 31 -50 50 -50 10 0 28 -8 41 -19 l23 -18 -22 -12 c-18 -9 -31 -8 -72 10
-63 27 -80 51 -80 109 0 54 24 83 87 105 47 17 50 17 92 5z m-2090 -205 c21
-49 67 -149 103 -220 53 -104 98 -217 98 -242 0 -25 -235 -46 -367 -33 -148
14 -326 74 -414 139 -84 62 -110 96 -165 218 -43 95 -53 136 -36 147 17 10
144 26 381 46 134 12 262 25 285 30 72 14 74 12 115 -85z m2307 77 c7 -10 30
-24 53 -30 47 -15 71 -44 71 -88 0 -95 -60 -141 -174 -136 -20 2 -41 15 -68
42 l-38 41 -17 -38 c-10 -21 -18 -40 -20 -41 -3 -6 -73 19 -73 26 0 9 233 238
245 240 6 1 15 -6 21 -16z m-851 -85 c25 -24 45 -51 45 -60 0 -23 -48 -75 -73
-79 -18 -2 -23 -11 -25 -43 -4 -48 -16 -63 -36 -46 -10 8 -12 24 -9 52 5 31 2
43 -13 53 -16 12 -22 11 -52 -15 -35 -31 -56 -31 -44 -1 9 24 143 182 153 182
5 0 29 -19 54 -43z m-1277 -9 c24 -11 77 -50 118 -86 41 -36 98 -82 127 -102
68 -47 68 -68 3 -93 -27 -10 -69 -31 -93 -47 l-43 -29 -16 32 c-10 18 -38 64
-64 102 -43 63 -130 231 -130 250 0 10 47 -3 98 -27z m2461 -93 c20 -11 41
-70 41 -110 0 -47 -30 -77 -99 -100 -99 -32 -171 12 -171 105 0 42 4 52 35 79
20 17 48 33 63 37 15 3 31 7 37 8 14 4 79 -9 94 -19z m-1044 -40 c31 -30 32
-73 4 -104 -24 -25 -40 -24 -54 6 -11 27 -51 47 -61 32 -7 -13 5 -27 38 -43
31 -15 31 -42 -1 -38 -36 4 -81 40 -81 66 0 28 15 48 59 81 44 31 65 32 96 0z
m95 -60 c0 -8 8 -15 17 -15 51 0 81 -82 45 -126 -37 -46 -94 -49 -143 -7 -17
15 -29 6 -42 -29 -8 -24 -47 -24 -47 0 0 9 24 40 53 68 28 28 63 67 77 87 27
39 40 46 40 22z m1122 -10 c8 -18 19 -25 40 -25 21 0 28 -5 28 -19 0 -10 7
-24 15 -31 13 -11 20 -9 38 9 28 25 54 27 79 4 25 -22 23 -31 -9 -36 -26 -4
-26 -4 5 -6 37 -1 41 -17 13 -52 -17 -22 -21 -22 -45 -10 -14 8 -27 12 -29 10
-1 -2 -21 -29 -44 -60 -44 -60 -43 -79 4 -79 27 0 29 -7 6 -32 -23 -26 -48
-22 -77 13 -37 44 -33 70 19 129 54 61 58 86 14 95 -17 4 -33 4 -36 1 -4 -3
-12 -1 -18 4 -22 18 -61 -6 -112 -68 -47 -56 -50 -58 -71 -44 -12 8 -22 17
-22 21 0 3 30 38 66 76 36 39 72 82 80 98 18 34 41 35 56 2z m-4184 -50 c-11
-11 -37 7 -31 22 5 13 8 13 21 -1 9 -9 13 -18 10 -21z m257 -99 c546 -325 670
-402 673 -419 9 -45 -58 -12 -418 203 -52 32 -172 103 -266 158 -95 56 -186
114 -204 129 -30 25 -31 27 -14 40 10 7 21 12 24 11 3 -2 95 -57 205 -122z
m2266 29 c16 -9 73 -44 127 -79 53 -35 144 -90 202 -121 95 -52 178 -103 560
-339 63 -39 173 -105 245 -146 156 -90 158 -95 89 -188 -32 -43 -53 -62 -68
-62 -12 0 -70 30 -129 68 -59 37 -189 119 -289 182 -114 72 -200 133 -227 163
-46 49 -190 142 -461 296 -80 46 -160 94 -177 108 -89 66 24 171 128 118z
m742 6 c32 -12 44 -59 25 -98 -7 -15 -30 -37 -50 -48 -37 -20 -38 -20 -73 0
-49 25 -59 47 -41 82 31 62 83 85 139 64z m-3355 -42 c2 -19 -3 -28 -23 -37
-41 -19 -65 -15 -65 10 0 55 82 81 88 27z m3524 -79 c3 0 9 8 11 18 3 9 5 -1
6 -23 l2 -40 20 38 c11 20 23 37 27 37 20 -1 30 -19 33 -60 l4 -45 -44 -3 -44
-3 7 -45 c7 -51 -13 -70 -42 -40 -16 16 -12 50 12 108 5 12 0 22 -18 33 -24
16 -28 16 -52 0 -14 -9 -33 -30 -42 -46 -17 -29 -45 -38 -57 -19 -3 6 9 29 27
53 19 23 42 55 52 70 l17 28 37 -31 c20 -16 40 -30 44 -30z m-3389 -8 c51 -32
133 -82 182 -112 50 -29 135 -80 190 -113 176 -105 504 -311 533 -334 23 -19
25 -24 12 -33 -20 -13 -26 -11 -175 84 -132 84 -395 244 -605 366 -63 37 -142
84 -175 104 -33 20 -70 39 -82 42 -22 6 -22 7 -5 30 9 13 21 24 25 24 4 0 49
-26 100 -58z m4487 26 c45 -31 58 -53 44 -75 -19 -30 -40 -26 -62 12 -13 22
-29 35 -42 35 -28 0 -25 -20 10 -66 16 -21 30 -51 30 -65 0 -53 -99 -72 -158
-31 -27 20 -32 30 -32 63 0 21 4 39 9 39 4 0 20 -18 35 -40 16 -25 34 -40 46
-40 25 0 37 27 21 49 -34 47 -51 78 -51 93 0 50 91 66 150 26z m-4763 -74 c3
-8 0 -21 -6 -27 -10 -9 -16 -8 -26 7 -8 10 -12 23 -9 27 9 15 34 10 41 -7z
m112 -71 c36 -20 111 -67 166 -103 109 -73 578 -360 661 -404 65 -35 126 -85
119 -97 -17 -26 -63 -3 -305 151 -63 40 -158 98 -210 127 -52 30 -101 60 -108
66 -18 14 -160 101 -294 179 -97 56 -108 65 -108 90 0 15 3 28 7 28 3 0 36
-17 72 -37z m3764 6 c17 -22 23 -59 9 -59 -5 0 -18 14 -31 31 -30 40 -39 30
-17 -19 10 -22 16 -50 14 -63 -4 -29 -38 -39 -38 -11 0 10 -11 41 -25 67 -23
46 -23 50 -7 68 21 23 69 16 95 -14z m-1269 -56 c160 -90 228 -130 266 -154
63 -41 444 -271 500 -302 30 -16 87 -51 125 -77 39 -27 104 -67 145 -90 79
-44 140 -95 140 -117 0 -24 -54 -83 -76 -83 -22 0 -81 35 -157 93 -25 19 -74
50 -108 67 -34 17 -84 46 -113 64 -62 40 -106 52 -118 34 -6 -11 -10 -10 -17
1 -5 8 -7 20 -4 28 3 8 -8 19 -28 28 -19 8 -63 33 -99 55 -36 22 -77 46 -92
52 -16 7 -28 15 -28 19 0 8 -143 99 -155 99 -4 0 -4 -7 -1 -16 4 -10 1 -14 -6
-12 -7 3 -14 14 -16 26 -2 12 -8 22 -14 22 -6 0 -42 20 -79 45 -38 25 -80 46
-94 47 -14 1 -25 8 -25 15 0 6 -10 15 -22 19 -45 14 -138 84 -138 104 0 30 20
67 44 78 40 20 70 12 170 -45z m1165 -28 c29 -41 30 -45 12 -45 -11 0 -33 12
-50 26 -26 22 -29 28 -18 45 6 10 14 19 18 19 3 0 20 -20 38 -45z m-3754 -94
c83 -54 178 -114 211 -132 32 -18 91 -54 129 -79 39 -26 132 -84 208 -129 126
-76 164 -111 119 -111 -9 0 -34 11 -55 25 -20 14 -121 77 -225 139 -260 157
-397 242 -465 287 -32 22 -64 39 -70 39 -16 0 -57 29 -57 40 0 8 18 16 44 19
5 0 77 -44 161 -98z m2373 -79 c194 -114 676 -404 877 -529 50 -31 127 -77
173 -102 90 -51 141 -93 143 -119 4 -56 -16 -94 -62 -118 -39 -20 -43 -18
-198 79 -197 125 -294 184 -384 237 -48 27 -147 87 -220 132 -72 44 -168 101
-212 125 -44 24 -85 50 -91 58 -6 8 -16 15 -22 15 -16 0 -149 80 -178 107 -47
44 -43 111 9 144 43 27 81 20 165 -29z m222 -2 c0 -5 -4 -10 -10 -10 -5 0 -10
5 -10 10 0 6 5 10 10 10 6 0 10 -4 10 -10z m-2914 -99 c38 -18 130 -70 204
-115 74 -46 229 -139 343 -207 239 -142 282 -175 296 -226 15 -53 -8 -92 -98
-171 -41 -37 -102 -94 -136 -128 -85 -85 -109 -98 -177 -98 -33 1 -66 7 -80
16 -13 8 -54 32 -92 53 -101 55 -547 323 -646 387 -154 101 -187 162 -141 263
36 81 187 221 269 252 64 23 177 12 258 -26z m2419 -100 c22 -10 117 -64 210
-121 94 -56 206 -124 250 -150 44 -26 151 -91 237 -146 173 -109 329 -205 457
-280 46 -27 90 -59 98 -71 19 -28 11 -62 -21 -100 -29 -33 -31 -33 -177 62
-158 103 -223 137 -237 123 -9 -9 -12 -8 -12 4 0 29 -46 60 -333 222 -65 37
-137 80 -160 97 -50 36 -132 86 -280 170 -117 66 -180 121 -175 152 3 20 61
57 88 57 8 0 33 -9 55 -19z m896 -48 c13 -15 12 -15 -8 -4 -24 12 -29 21 -14
21 5 0 15 -7 22 -17z m-1024 -206 c57 -34 187 -113 290 -176 104 -63 265 -162
358 -220 94 -57 240 -146 325 -197 228 -136 230 -138 230 -177 0 -39 -43 -105
-83 -126 -23 -12 -29 -11 -71 15 -25 16 -74 47 -108 68 -35 22 -115 73 -178
114 -200 131 -389 245 -800 485 -136 80 -168 103 -190 140 -25 41 -25 58 1 91
51 65 99 61 226 -17z m2199 49 c3 -8 12 -12 19 -10 7 3 16 0 20 -5 3 -6 11 -9
16 -5 15 9 74 -33 87 -61 20 -44 14 -79 -19 -111 -56 -54 -151 -32 -232 54
-19 19 -28 38 -25 53 2 20 10 24 45 27 46 3 64 -12 37 -32 -24 -18 -1 -31 26
-14 21 13 28 38 10 38 -5 0 -10 6 -10 14 0 9 -12 16 -32 18 -41 4 -47 23 -11
36 40 15 63 14 69 -2z m-236 -235 c5 -11 10 -29 10 -41 0 -30 -38 -100 -55
-100 -21 0 -28 19 -15 35 14 17 -1 20 -17 4 -8 -8 -19 -6 -42 5 -36 19 -36 19
-17 35 12 10 17 7 30 -16 12 -24 15 -26 21 -10 4 10 1 24 -6 34 -13 14 -11 15
16 10 17 -3 41 -9 55 -13 25 -7 25 -7 6 14 -11 12 -27 22 -38 22 -21 0 -23 11
-6 28 18 18 46 14 58 -7z m-2292 -29 c52 -26 213 -120 370 -216 72 -44 156
-95 185 -113 28 -17 90 -56 137 -86 72 -47 213 -134 440 -272 39 -24 49 -36
50 -57 0 -34 -45 -88 -74 -88 -12 0 -83 36 -157 81 -74 45 -158 94 -188 111
-49 27 -221 135 -282 178 -14 10 -63 37 -110 60 -46 24 -133 75 -194 114 -60
39 -162 98 -225 131 l-115 60 0 40 c0 36 4 42 35 57 45 23 82 23 128 0z m2338
-36 c-2 -13 -10 -35 -16 -48 -8 -15 -1 -12 19 12 17 19 31 38 31 43 0 18 39 5
55 -19 17 -27 13 -80 -6 -69 -5 4 -16 1 -24 -5 -8 -7 -15 -9 -15 -6 0 12 23
51 34 58 8 5 7 11 -2 20 -11 11 -17 8 -33 -12 -11 -14 -18 -35 -15 -48 4 -27
-13 -37 -49 -28 -38 10 -39 28 -8 80 15 25 29 46 31 46 1 0 0 -11 -2 -24z
m-3091 -105 c33 -15 114 -60 180 -100 160 -98 348 -210 526 -314 173 -101 204
-132 195 -191 -7 -43 -35 -84 -95 -144 -153 -150 -245 -219 -305 -229 -50 -8
-105 14 -241 97 -115 70 -168 101 -375 223 -52 30 -133 80 -180 110 -47 30
-114 69 -150 88 -93 49 -130 89 -130 142 0 41 3 45 137 175 76 73 151 140 168
149 37 20 118 32 170 26 22 -2 67 -17 100 -32z m-2052 -94 c-3 -5 -20 6 -38
24 -18 19 -31 36 -29 38 2 2 -2 11 -8 20 -7 9 9 -4 35 -28 25 -24 43 -49 40
-54z m4921 -15 c-1 -36 -1 -36 3 -4 2 18 10 35 17 38 24 9 86 -24 96 -50 12
-33 4 -55 -34 -88 -31 -28 -88 -38 -101 -18 -3 5 -22 17 -41 26 -26 13 -33 21
-29 35 7 21 -5 25 -23 7 -17 -17 -35 3 -30 33 2 20 10 25 47 29 52 6 69 30 21
30 -34 0 -33 16 4 29 34 13 70 -22 70 -67z m-4678 -130 c-4 -3 -14 2 -24 12
-16 18 -16 18 6 6 13 -6 21 -14 18 -18z m4426 -39 c10 -9 18 -22 18 -30 0 -12
4 -12 21 1 19 13 26 13 48 1 47 -24 74 -61 67 -90 -7 -29 -59 -65 -93 -65 -24
0 -47 29 -57 73 -9 37 -30 36 -23 -3 5 -23 3 -28 -8 -23 -8 3 -15 9 -15 14 0
5 -5 9 -12 9 -19 0 -48 31 -48 52 0 10 6 18 13 18 18 0 49 -34 40 -43 -3 -4
-1 -7 5 -7 16 0 15 11 -4 38 -12 18 -13 26 -4 37 6 8 9 19 5 25 -10 16 27 12
47 -7z m-3451 -192 c28 -22 339 -209 454 -273 149 -84 250 -141 315 -178 36
-21 132 -75 213 -121 81 -45 151 -87 153 -91 9 -14 -17 -38 -41 -38 -12 0 -92
42 -176 93 -85 51 -242 142 -349 202 -107 59 -251 143 -320 185 -69 42 -165
99 -215 126 -82 45 -90 52 -93 82 -3 26 0 32 16 32 11 0 30 -8 43 -19z m3317
-27 c109 -60 137 -116 84 -167 -46 -45 -81 -45 -151 -2 -34 21 -66 44 -72 51
-14 17 -3 84 14 84 7 0 18 14 24 30 14 38 38 39 101 4z m-3743 -64 c3 -6 -1
-7 -9 -4 -18 7 -21 14 -7 14 6 0 13 -4 16 -10z m2461 -149 c23 -10 117 -66
210 -124 93 -57 246 -149 339 -205 223 -131 252 -154 276 -208 20 -44 20 -44
0 -90 -26 -59 -80 -126 -93 -118 -6 4 -8 2 -4 -4 3 -6 -6 -20 -20 -31 -22 -17
-30 -19 -43 -9 -14 11 -14 11 -3 -3 10 -14 7 -21 -24 -44 -46 -35 -95 -52
-182 -65 -114 -16 -163 -1 -297 90 -39 26 -93 59 -120 73 -57 29 -146 82 -190
113 -17 12 -94 56 -173 99 -188 102 -213 133 -175 212 20 43 230 264 280 294
67 42 154 49 219 20z m969 -25 c16 -12 17 -15 4 -30 -48 -57 -89 -77 -115 -55
-21 17 -17 34 13 48 20 9 23 15 15 23 -7 7 -12 16 -12 20 0 13 75 9 95 -6z
m-2975 -97 l25 -21 -31 17 c-17 10 -41 26 -55 37 l-24 19 30 -15 c17 -8 41
-25 55 -37z m3088 39 c18 -18 15 -30 -23 -71 l-34 -37 -46 22 c-50 24 -55 33
-25 41 11 3 20 14 20 24 0 11 3 23 7 26 11 12 88 8 101 -5z m-1850 -767 c56
-30 100 -56 98 -58 -5 -5 -152 70 -191 97 -42 30 -25 23 93 -39z m1572 -116
c0 -7 -150 -125 -158 -125 -4 0 6 10 22 22 16 12 52 41 80 64 54 45 56 47 56
39z m-170 -130 c0 -6 -76 -45 -87 -45 -4 1 12 12 37 25 50 27 50 27 50 20z
m-317 -82 c-7 -2 -19 -2 -25 0 -7 3 -2 5 12 5 14 0 19 -2 13 -5z m-214 -149
c10 -9 -35 -3 -49 6 -11 8 -7 9 15 4 17 -4 32 -8 34 -10z m38 -10 c-3 -3 -12
-4 -19 -1 -8 3 -5 6 6 6 11 1 17 -2 13 -5z m56 -11 c-7 -2 -21 -2 -30 0 -10 3
-4 5 12 5 17 0 24 -2 18 -5z"/>
<path d="M6410 8886 c0 -2 8 -10 18 -17 15 -13 16 -12 3 4 -13 16 -21 21 -21
13z"/>
<path d="M6154 8675 c-9 -14 -15 -27 -13 -28 75 -46 125 -58 136 -31 7 20 -21
49 -69 69 -37 15 -38 15 -54 -10z"/>
<path d="M6060 8579 c-14 -25 7 -54 46 -63 13 -4 24 -11 24 -16 0 -18 39 -10
50 9 14 27 15 26 -38 60 -57 37 -68 38 -82 10z"/>
<path d="M6351 8569 c-13 -10 -40 -22 -60 -25 -35 -6 -37 -8 -33 -39 5 -41
-11 -72 -40 -78 l-23 -4 23 -2 c12 0 22 -8 22 -16 0 -8 4 -15 9 -15 5 0 12
-14 16 -30 7 -33 50 -90 68 -90 6 0 -1 12 -16 28 -33 35 -51 107 -34 141 25
50 61 66 152 66 87 0 94 9 15 20 -56 8 -67 14 -71 42 -4 21 -4 21 -28 2z"/>
<path d="M5920 8536 c0 -9 107 -80 154 -102 28 -13 67 -23 86 -23 36 1 31 3
-32 14 -20 3 -72 30 -117 60 -76 52 -91 61 -91 51z"/>
<path d="M6400 8456 c0 -2 17 -15 38 -27 20 -13 43 -29 51 -37 17 -17 25 -9
16 18 -4 12 -22 28 -41 36 -32 14 -64 18 -64 10z"/>
<path d="M6580 8393 c0 -23 -5 -54 -12 -68 -15 -34 -36 -29 -145 35 -46 27
-83 44 -83 37 1 -39 14 -57 50 -67 21 -6 48 -18 61 -28 l22 -19 -24 -16 c-21
-15 -16 -23 14 -18 4 0 7 -4 7 -10 0 -5 5 -7 12 -3 8 5 9 2 5 -9 -3 -10 -2
-17 4 -17 11 0 37 27 122 124 48 55 50 59 24 53 -15 -4 -27 -4 -27 1 0 4 -7
17 -15 28 -13 18 -14 16 -15 -23z"/>
<path d="M6720 8375 c10 -12 10 -18 -1 -32 -13 -15 -12 -16 9 -11 13 4 36 3
52 -2 39 -11 39 -2 0 12 -17 5 -35 19 -41 29 -5 10 -15 19 -21 19 -7 0 -6 -5
2 -15z"/>
<path d="M6887 8228 c-8 -28 -4 -32 27 -24 24 6 25 7 9 26 -22 26 -29 25 -36
-2z"/>
<path d="M6841 8134 c-33 -28 -47 -69 -14 -43 13 11 15 11 9 1 -5 -8 -1 -19
10 -27 11 -8 14 -14 7 -15 -18 0 17 -40 35 -40 22 0 72 57 72 82 0 19 -2 20
-11 8 -8 -12 -9 -10 -4 8 15 53 -52 70 -104 26z m36 -9 c0 -17 0 -17 -22 -9
-13 5 -14 8 -3 15 19 12 25 11 25 -6z"/>
<path d="M7037 8098 c3 -39 -1 -72 -9 -87 -18 -35 -74 -65 -133 -72 l-50 -6
50 -2 c115 -3 202 116 152 207 -11 20 -13 15 -10 -40z"/>
<path d="M7332 8050 c-81 -20 -136 -131 -104 -211 13 -32 77 -89 100 -89 10 0
28 7 40 16 l23 16 -60 64 c-34 35 -64 76 -67 89 -18 71 31 110 133 103 35 -2
58 -1 51 3 -23 13 -82 18 -116 9z"/>
<path d="M6750 8015 c0 -6 9 -20 20 -30 11 -10 17 -22 14 -27 -3 -4 -2 -8 3
-7 4 1 16 -1 26 -6 29 -13 24 -2 -20 41 -24 23 -43 36 -43 29z"/>
<path d="M7475 8024 c6 -5 23 -20 40 -34 29 -24 29 -24 10 -2 -11 13 -29 28
-40 34 -11 6 -15 6 -10 2z"/>
<path d="M7343 7963 c-23 -9 -14 -23 52 -85 70 -65 84 -95 66 -134 -12 -27
-81 -63 -119 -64 -59 0 -177 94 -189 151 -4 20 -9 26 -13 18 -10 -15 7 -56 35
-86 31 -32 136 -103 155 -103 43 0 85 -39 81 -76 -1 -6 11 -11 26 -12 16 -1
39 -3 53 -4 24 -3 24 -1 37 102 16 135 19 147 43 155 34 11 43 -3 36 -56 -21
-166 -21 -156 1 -136 11 9 22 17 26 17 3 0 36 18 74 41 48 29 60 39 41 36 -32
-5 -55 9 -60 38 -2 10 -13 22 -26 25 -13 3 -23 8 -22 13 0 4 -15 21 -34 37
-27 24 -43 30 -79 30 -39 0 -44 3 -40 18 3 11 -7 31 -25 50 -24 26 -38 32 -69
31 -21 0 -44 -3 -50 -6z"/>
<path d="M8600 7370 c0 -5 9 -10 20 -10 11 0 20 5 20 10 0 6 -9 10 -20 10 -11
0 -20 -4 -20 -10z"/>
<path d="M9087 7349 c-4 -16 -3 -18 9 -8 16 13 19 29 5 29 -5 0 -11 -9 -14
-21z"/>
<path d="M9122 7291 c-28 -35 -39 -41 -70 -41 -28 0 -33 -3 -22 -10 8 -5 32
-10 53 -10 28 0 37 4 37 17 0 9 9 27 21 39 12 12 19 28 17 34 -2 6 -18 -7 -36
-29z"/>
<path d="M8974 7305 c8 -8 20 -15 26 -15 6 0 9 -4 6 -9 -6 -9 23 -25 31 -17 7
7 -47 56 -63 56 -14 0 -14 -2 0 -15z"/>
<path d="M9310 7180 c0 -14 7 -20 24 -20 19 0 23 4 19 20 -3 11 -14 20 -24 20
-12 0 -19 -7 -19 -20z"/>
<path d="M8000 7186 c0 -8 5 -18 10 -21 6 -3 10 3 10 14 0 12 -4 21 -10 21 -5
0 -10 -6 -10 -14z"/>
<path d="M8080 7130 c0 -5 10 -10 23 -10 18 0 19 2 7 10 -19 13 -30 13 -30 0z"/>
<path d="M8205 6980 c10 -11 20 -20 23 -20 3 0 -3 9 -13 20 -10 11 -20 20 -23
20 -3 0 3 -9 13 -20z"/>
<path d="M8207 7369 c-16 -9 -9 -15 50 -43 37 -19 70 -32 72 -30 8 7 -23 65
-40 74 -23 13 -59 12 -82 -1z"/>
<path d="M8770 6901 c-8 -16 -6 -23 12 -35 12 -9 33 -16 45 -16 13 0 23 -5 23
-11 0 -15 27 7 41 32 8 15 4 21 -20 34 -42 21 -88 19 -101 -4z"/>
<path d="M5322 6030 c-7 -11 -9 -20 -4 -20 4 0 13 9 20 20 7 11 9 20 4 20 -4
0 -13 -9 -20 -20z"/>
<path d="M4950 5855 c0 -2 19 -14 43 -26 23 -12 52 -30 63 -41 12 -11 24 -15
27 -11 3 5 -22 26 -57 46 -61 36 -76 42 -76 32z"/>
<path d="M3627 6093 c-13 -13 -7 -32 14 -44 17 -9 25 -8 37 5 13 12 13 18 2
30 -13 16 -42 21 -53 9z"/>
<path d="M4012 5878 c-17 -17 -15 -43 5 -59 15 -13 15 -12 4 9 -11 20 -10 27
5 43 18 20 6 27 -14 7z"/>
<path d="M4069 5871 c8 -5 11 -16 8 -25 -8 -21 -27 -21 -27 1 0 9 -3 14 -6 10
-3 -3 -3 -15 1 -27 7 -22 7 -22 36 6 36 35 36 44 2 44 -20 0 -24 -3 -14 -9z"/>
<path d="M5120 5268 c-28 -31 -25 -44 17 -73 46 -31 77 -32 97 -3 20 28 7 52
-44 78 -48 25 -45 25 -70 -2z"/>
<path d="M5350 5039 c61 -48 79 -59 85 -49 8 13 -11 47 -35 60 -10 5 -31 10
-47 10 l-28 0 25 -21z"/>
<path d="M5556 4869 c-32 -25 -32 -30 0 -68 30 -36 70 -41 104 -13 25 20 30
63 10 87 -18 22 -82 19 -114 -6z"/>
<path d="M4690 4840 c-6 -12 -9 -28 -6 -36 8 -20 65 -18 73 2 16 41 -46 72
-67 34z"/>
<path d="M5809 4721 c-34 -35 -35 -41 -10 -72 40 -50 141 -20 141 42 0 60 -82
79 -131 30z"/>
<path d="M4866 4721 c-3 -5 1 -11 9 -15 8 -3 15 -12 15 -21 0 -8 5 -15 10 -15
6 0 10 9 10 20 0 21 -35 46 -44 31z"/>
<path d="M4966 4593 c-19 -25 -19 -26 0 -40 38 -28 92 7 68 45 -17 27 -47 25
-68 -5z"/>
<path d="M5143 4522 c-15 -10 -31 -53 -26 -69 9 -26 75 -9 87 22 14 37 -28 68
-61 47z"/>
<path d="M1620 3430 c0 -6 7 -10 15 -10 8 0 15 2 15 4 0 2 -7 6 -15 10 -8 3
-15 1 -15 -4z"/>
<path d="M5900 3618 c0 -14 30 -22 41 -11 7 7 2 12 -15 15 -14 3 -26 1 -26 -4z"/>
<path d="M5888 3473 c7 -3 16 -2 19 1 4 3 -2 6 -13 5 -11 0 -14 -3 -6 -6z"/>
<path d="M5447 3123 c-28 -43 -26 -58 4 -42 13 6 18 16 15 26 -4 9 -1 22 5 30
7 7 9 16 6 19 -3 3 -17 -11 -30 -33z"/>
<path d="M5415 3129 c-4 -6 -5 -12 -2 -15 2 -3 7 2 10 11 7 17 1 20 -8 4z"/>
<path d="M5272 2918 c-7 -7 -12 -18 -12 -26 0 -11 3 -10 15 2 17 16 38 12 70
-13 19 -15 19 -15 5 4 -31 44 -56 55 -78 33z"/>
<path d="M5271 2845 c5 -23 40 -31 66 -15 16 9 15 10 -5 5 -16 -5 -30 -1 -44
12 -20 18 -20 17 -17 -2z"/>
<path d="M5047 2732 c-22 -24 -23 -64 -2 -56 8 4 15 14 15 24 0 21 21 32 39
21 10 -6 9 -12 -4 -25 -21 -21 -7 -21 16 0 16 15 16 17 1 35 -21 24 -44 24
-65 1z"/>
<path d="M5000 2654 c0 -14 75 -74 92 -74 7 0 4 6 -7 12 -11 6 -35 24 -52 41
-18 17 -33 26 -33 21z"/>
<path d="M5055 2650 c4 -6 11 -8 16 -5 14 9 11 15 -7 15 -8 0 -12 -5 -9 -10z"/>
<path d="M4025 2030 c4 -6 11 -8 16 -5 14 9 11 15 -7 15 -8 0 -12 -5 -9 -10z"/>
<path d="M4196 2015 c4 -8 12 -15 20 -15 20 0 17 7 -6 20 -16 9 -18 8 -14 -5z"/>
<path d="M4737 2513 c-4 -3 -7 -15 -7 -26 0 -19 1 -19 20 -2 11 10 17 22 14
26 -6 11 -18 12 -27 2z"/>
<path d="M4826 2433 c-5 -11 -1 -22 10 -30 15 -11 19 -9 31 13 17 34 17 34
-11 34 -13 0 -27 -8 -30 -17z"/>
<path d="M1477 8771 c-3 -12 -16 -21 -33 -24 -16 -2 0 -4 36 -5 41 0 56 3 40
7 -17 5 -21 9 -12 15 18 11 15 26 -7 26 -10 0 -21 -9 -24 -19z"/>
<path d="M9686 3887 c3 -9 -15 -29 -45 -53 -28 -21 -51 -42 -51 -47 0 -4 -143
-151 -317 -326 -175 -175 -365 -369 -423 -431 -144 -155 -415 -430 -424 -430
-12 0 -89 -82 -117 -125 -41 -64 -41 -79 -2 -117 37 -35 61 -75 105 -176 44
-102 37 -150 -35 -236 l-24 -30 -13 55 c-43 183 -213 355 -409 415 -53 16 -64
17 -57 6 2 -4 -23 -8 -56 -9 -67 -1 -69 7 -5 18 39 6 39 7 9 8 -37 1 -76 -15
-67 -28 4 -7 -27 -34 -50 -44 -7 -2 -580 -581 -744 -750 l-113 -117 33 0 c83
-1 222 -71 322 -163 37 -34 47 -51 47 -75 0 -18 5 -32 10 -32 6 0 10 -8 10
-17 0 -12 -10 -5 -32 21 -53 65 -178 150 -277 189 -117 47 -135 47 -188 -4
-24 -22 -43 -41 -43 -42 0 -1 20 -1 44 1 52 4 101 -15 201 -81 62 -40 200
-167 182 -167 -15 0 -95 46 -133 77 -77 62 -240 133 -305 133 -26 0 -57 -24
-42 -32 4 -3 3 -4 -3 -2 -7 1 -21 -7 -32 -19 l-21 -22 47 -1 c26 -1 72 -12
103 -27 56 -24 158 -111 146 -123 -3 -4 -39 11 -79 32 -195 101 -221 108 -262
72 -14 -13 -84 -88 -155 -168 -122 -136 -128 -145 -103 -148 15 -2 28 1 30 8
9 25 221 240 238 240 7 0 14 5 16 11 5 15 84 24 92 10 12 -19 -25 -74 -121
-178 -74 -80 -101 -103 -121 -103 -23 -1 -20 -4 23 -27 64 -32 221 -191 258
-260 54 -101 52 -187 -4 -227 -34 -23 -37 -21 -32 32 9 96 -51 204 -167 300
-163 134 -323 151 -354 38 -4 -17 -3 -17 17 2 32 28 62 42 94 42 40 0 124 -42
194 -95 l59 -46 -17 -32 c-22 -40 -103 -127 -119 -127 -6 0 -17 -7 -25 -16
-12 -15 -69 -62 -249 -207 -84 -67 -177 -163 -168 -173 12 -11 121 40 185 86
37 27 89 64 116 82 85 59 151 112 199 159 41 40 52 46 83 43 24 -1 35 2 35 11
0 16 50 15 68 -2 6 -6 12 -28 12 -48 0 -47 -29 -74 -144 -132 -49 -25 -107
-56 -128 -69 -42 -27 -370 -179 -403 -187 -12 -3 -6 -5 16 -6 19 0 39 3 45 8
5 4 41 20 79 35 39 15 144 66 234 112 89 47 165 83 168 81 2 -3 5 -47 7 -98 2
-52 4 -104 5 -116 l1 -23 283 0 282 0 63 60 c35 33 68 60 74 60 5 0 23 14 38
30 15 17 33 30 40 30 11 0 79 69 333 340 60 63 124 131 144 151 l34 36 -28 21
-28 21 33 -12 c31 -11 35 -10 54 13 11 14 63 70 116 125 54 56 114 121 136
145 21 25 84 92 140 150 56 58 132 142 170 188 38 45 71 82 72 82 2 0 1 -6 -2
-14 -4 -9 6 -20 25 -30 34 -18 61 -21 61 -6 0 6 9 10 21 10 11 0 18 4 15 9 -3
5 3 11 14 14 11 3 30 27 45 60 14 31 40 72 59 92 44 46 66 80 66 101 0 9 8 18
19 21 10 2 24 14 30 26 22 41 37 65 50 81 8 10 11 26 7 42 -7 25 -8 26 -27 9
-30 -28 -29 -14 2 29 22 30 29 34 30 20 0 -14 2 -15 6 -4 8 20 29 40 42 40 6
0 11 3 11 8 0 12 117 132 129 132 14 0 51 37 51 50 0 5 11 19 24 32 13 13 45
48 71 78 26 30 90 100 143 155 54 55 109 114 124 130 15 17 39 41 53 55 15 14
33 37 41 53 8 15 32 40 53 55 20 15 58 50 83 77 134 146 177 197 183 215 4 11
13 20 21 20 8 0 14 6 14 13 0 6 16 25 35 40 20 16 35 37 35 48 0 12 9 34 20
49 29 41 47 126 32 151 -7 10 -12 32 -12 47 0 36 -129 253 -161 269 -19 10
-25 9 -36 -5 -11 -15 -12 -10 -13 31 0 27 -8 64 -20 86 -32 64 -174 208 -154
158z m-1792 -1536 c40 -16 23 -47 -84 -151 -151 -149 -548 -537 -639 -624
l-82 -79 -54 12 c-29 7 -56 18 -59 26 -5 14 22 47 84 100 19 17 53 52 75 80
107 131 578 599 637 631 27 16 87 18 122 5z m423 -413 c-3 -7 -5 -2 -5 12 0
14 2 19 5 13 2 -7 2 -19 0 -25z m-20 -30 c-3 -8 -6 -5 -6 6 -1 11 2 17 5 13 3
-3 4 -12 1 -19z m20 -10 c-3 -8 -6 -5 -6 6 -1 11 2 17 5 13 3 -3 4 -12 1 -19z
m502 -105 c-8 -9 -23 -26 -34 -37 -11 -12 -36 -41 -55 -65 -66 -81 -103 -121
-108 -117 -3 3 10 23 29 44 19 21 52 60 74 87 38 46 96 105 104 105 2 0 -3 -8
-10 -17z m-236 -268 c-3 -9 -8 -14 -10 -11 -3 3 -2 9 2 15 9 16 15 13 8 -4z
m-1280 -405 c-7 -8 -22 24 -16 34 4 5 10 1 13 -10 4 -10 6 -21 3 -24z m462
-360 c3 -5 2 -10 -4 -10 -5 0 -13 5 -16 10 -3 6 -2 10 4 10 5 0 13 -4 16 -10z"/>
<path d="M9039 3822 c-50 -25 -195 -160 -513 -481 -331 -333 -315 -310 -266
-394 l22 -36 341 342 c188 188 392 388 452 444 91 84 107 104 95 113 -8 6 -34
9 -58 7 -35 -4 -40 -3 -26 8 15 11 15 12 0 12 -8 0 -30 -7 -47 -15z"/>
<path d="M386 3805 c-9 -26 -7 -32 5 -12 6 10 9 21 6 23 -2 3 -7 -2 -11 -11z"/>
<path d="M8077 2893 c-20 -63 -29 -151 -19 -187 l8 -29 67 74 c37 40 66 77 65
81 -2 4 -19 17 -38 30 -19 13 -40 34 -46 46 -18 37 -21 35 -37 -15z"/>
<path d="M8460 1381 c0 -5 -66 -80 -146 -166 -81 -86 -145 -158 -143 -159 13
-12 90 -46 85 -37 -4 5 3 12 14 16 11 4 18 10 15 15 -7 11 162 180 180 180 8
0 15 7 15 15 0 8 8 15 18 15 20 0 42 38 42 70 0 10 -13 28 -29 39 -31 22 -51
27 -51 12z"/>
<path d="M8138 1022 c-7 -19 -88 -109 -186 -208 -57 -57 -99 -105 -95 -105 39
-7 83 -4 82 5 -1 6 1 19 6 29 6 14 10 15 15 6 6 -8 17 -3 41 20 19 17 40 31
47 31 7 0 11 4 8 9 -3 4 6 19 20 32 15 13 30 34 35 47 5 12 17 22 28 22 10 0
26 11 35 25 9 14 23 25 30 25 30 0 26 31 -7 50 -34 21 -53 25 -59 12z"/>
<path d="M7907 689 c7 -7 15 -10 18 -7 3 3 -2 9 -12 12 -14 6 -15 5 -6 -5z"/>
<path d="M7829 663 c-29 -35 -41 -53 -36 -53 2 0 17 16 31 35 28 36 31 49 5
18z"/>
<path d="M7860 660 c0 -5 5 -10 11 -10 5 0 7 5 4 10 -3 6 -8 10 -11 10 -2 0
-4 -4 -4 -10z"/>
<path d="M620 175 c-28 -15 -188 -157 -189 -167 -1 -5 80 -8 179 -8 179 0 180
0 168 20 -7 12 -23 23 -35 26 -13 4 -23 10 -23 15 0 5 -16 27 -36 49 -21 23
-34 46 -31 55 9 21 -5 25 -33 10z"/>
<path d="M0 80 l0 -80 175 0 175 0 30 42 c27 37 32 67 15 86 -2 2 -75 5 -164
7 -88 2 -169 9 -180 14 -45 25 -51 16 -51 -69z"/>
<path d="M5843 118 c-25 -33 -24 -37 12 -31 49 8 57 -18 19 -58 l-28 -29 56 0
56 0 -7 33 c-10 44 -30 73 -58 86 -31 14 -38 14 -50 -1z"/>
</g>
</svg>
